<svg width="24" height="24" viewBox="0 0 24 24" fill="none" xmlns="http://www.w3.org/2000/svg">
<path d="M7.35938 1.55203L2.84344 3.35813L3.15656 4.14188L6.14062 2.94797L5.6625 4.85625C4.76719 5.02031 4.07812 5.80781 4.07812 6.75C4.07812 7.68281 4.75313 8.46563 5.63906 8.63906C5.23125 9.4875 4.73438 10.5563 4.23422 11.7844C3.39797 13.8281 2.67188 16.0781 2.67188 17.4375C2.67188 18.4453 3.07172 19.1484 3.68531 19.6406C4.29938 20.1281 5.14687 20.3906 6 20.3906C6.85313 20.3906 7.70156 20.1281 8.31562 19.6406C8.92969 19.1484 9.32812 18.4453 9.32812 17.4375C9.32812 16.0781 8.60156 13.8281 7.76719 11.7844C7.26562 10.5563 6.76875 9.4875 6.36094 8.63906C7.24687 8.46563 7.92188 7.68281 7.92188 6.75C7.92188 5.87344 7.32656 5.13281 6.52031 4.90313L7.35938 1.55203ZM19.3594 1.55391L14.8453 3.36047L15.1547 4.14422L18.1406 2.95078L17.6625 4.85625C16.7672 5.02031 16.0781 5.80781 16.0781 6.75C16.0781 7.68281 16.7531 8.46563 17.6391 8.63906C17.2312 9.4875 16.7344 10.5563 16.2328 11.7844C15.3984 13.8281 14.6719 16.0781 14.6719 17.4375C14.6719 18.4453 15.0703 19.1484 15.6844 19.6406C16.2984 20.1281 17.1469 20.3906 18 20.3906C18.8531 20.3906 19.7016 20.1281 20.3156 19.6406C20.9297 19.1484 21.3281 18.4453 21.3281 17.4375C21.3281 16.0781 20.6016 13.8281 19.7672 11.7844C19.2656 10.5563 18.7688 9.4875 18.3609 8.63906C19.2469 8.46563 19.9219 7.68281 19.9219 6.75C19.9219 5.87344 19.3266 5.13281 18.5203 4.90313L19.3594 1.55391ZM6 5.67188C6.6 5.67188 7.07812 6.15 7.07812 6.75C7.07812 7.35 6.6 7.82813 6 7.82813C5.4 7.82813 4.92188 7.35 4.92188 6.75C4.92188 6.15 5.4 5.67188 6 5.67188ZM18 5.67188C18.6 5.67188 19.0781 6.15 19.0781 6.75C19.0781 7.35 18.6 7.82813 18 7.82813C17.4 7.82813 16.9219 7.35 16.9219 6.75C16.9219 6.15 17.4 5.67188 18 5.67188ZM6 21.2344C5.67188 21.2344 5.38125 21.3375 5.19375 21.4781C5.00156 21.6234 4.92188 21.7781 4.92188 21.9375C4.92188 22.0969 5.00156 22.2516 5.19375 22.3969C5.38125 22.5375 5.67188 22.6406 6 22.6406C6.32812 22.6406 6.61875 22.5375 6.80625 22.3969C6.99844 22.2516 7.07812 22.0969 7.07812 21.9375C7.07812 21.7781 6.99844 21.6234 6.80625 21.4781C6.61875 21.3375 6.32812 21.2344 6 21.2344ZM18 21.2344C17.6719 21.2344 17.3812 21.3375 17.1937 21.4781C17.0016 21.6234 16.9219 21.7781 16.9219 21.9375C16.9219 22.0969 17.0016 22.2516 17.1937 22.3969C17.3812 22.5375 17.6719 22.6406 18 22.6406C18.3281 22.6406 18.6188 22.5375 18.8063 22.3969C18.9984 22.2516 19.0781 22.0969 19.0781 21.9375C19.0781 21.7781 18.9984 21.6234 18.8063 21.4781C18.6188 21.3375 18.3281 21.2344 18 21.2344Z" fill="#d94496"/>
</svg>
