<svg width="62" height="8" viewBox="0 0 62 8" fill="none" xmlns="http://www.w3.org/2000/svg">
<path d="M6.57599 3.20799V6.62799C6.03999 6.80399 5.53199 6.93199 5.05199 7.01199C4.57199 7.09199 4.16799 7.13199 3.83999 7.13199C2.75199 7.13199 1.89999 6.84799 1.28399 6.27999C0.667985 5.71199 0.359985 4.83999 0.359985 3.66399C0.359985 2.46399 0.683985 1.56799 1.33199 0.975989C1.97999 0.375989 2.89199 0.0759888 4.06799 0.0759888C4.68399 0.0759888 5.42399 0.167989 6.28799 0.351989C6.28799 0.511989 6.27199 0.751989 6.23999 1.07199C6.20799 1.38399 6.17599 1.60399 6.14399 1.73199L5.71199 1.71999C5.18399 1.70399 4.77199 1.69599 4.47599 1.69599C3.58799 1.69599 3.10399 1.74799 3.02399 1.85199C2.89599 2.00399 2.80399 2.23999 2.74799 2.55999C2.69999 2.87999 2.67599 3.18799 2.67599 3.48399C2.67599 4.01999 2.73599 4.43599 2.85599 4.73199C2.97599 5.02799 3.15999 5.23599 3.40799 5.35599C3.65599 5.47599 3.99199 5.53599 4.41599 5.53599H4.46399V3.20799H6.57599Z" fill="white"/>
<path d="M13.9921 0.159988V3.98799C13.9921 4.77999 13.9041 5.39999 13.7281 5.84799C13.5601 6.28799 13.2401 6.61199 12.7681 6.81999C12.2961 7.02799 11.6081 7.13199 10.7041 7.13199C10.0401 7.13199 9.48008 7.06399 9.02408 6.92799C8.56808 6.78399 8.20408 6.51599 7.93208 6.12399C7.66808 5.73199 7.53608 5.17999 7.53608 4.46799V0.159988H9.69608V4.01199C9.69608 4.43599 9.71608 4.75999 9.75608 4.98399C9.80408 5.19999 9.90808 5.36799 10.0681 5.48799C10.2281 5.59999 10.4721 5.65599 10.8001 5.65599C11.0001 5.65599 11.1881 5.63599 11.3641 5.59599C11.5401 5.55599 11.6601 5.49599 11.7241 5.41599C11.7961 5.31999 11.8321 4.97199 11.8321 4.37199V0.159988H13.9921Z" fill="white"/>
<path d="M21.3592 6.99999H19.0912L18.6832 5.27199C18.6672 5.20799 18.6392 5.09999 18.5992 4.94799C18.5672 4.78799 18.5272 4.67199 18.4792 4.59999C18.4312 4.51999 18.3632 4.46799 18.2752 4.44399C18.0512 4.45199 17.7232 4.45599 17.2912 4.45599V6.99999H15.1312V0.219989C16.0992 0.147989 17.0032 0.111989 17.8432 0.111989C18.6032 0.111989 19.2192 0.175989 19.6912 0.303989C20.1632 0.423989 20.5152 0.635989 20.7472 0.939989C20.9872 1.23599 21.1072 1.64399 21.1072 2.16399C21.1072 2.65199 20.9952 3.03599 20.7712 3.31599C20.5472 3.58799 20.1872 3.75199 19.6912 3.80799V3.87999C19.9712 3.90399 20.2032 3.99599 20.3872 4.15599C20.5792 4.30799 20.7072 4.50399 20.7712 4.74399L21.3592 6.99999ZM17.2912 3.09999C17.3632 3.10799 17.5032 3.11199 17.7112 3.11199C18.3272 3.11199 18.6872 3.05999 18.7912 2.95599C18.8872 2.85999 18.9352 2.63599 18.9352 2.28399C18.9352 1.95599 18.8472 1.73199 18.6712 1.61199C18.5032 1.49199 18.2232 1.43199 17.8312 1.43199C17.7432 1.43199 17.5632 1.43999 17.2912 1.45599V3.09999Z" fill="white"/>
<path d="M22.0682 0.159988H24.2282V5.41599H27.0242V6.99999H22.0682V0.159988Z" fill="white"/>
<path d="M29.7672 2.00799C29.7672 2.17599 29.8512 2.30799 30.0192 2.40399C30.1952 2.49999 30.4672 2.60399 30.8352 2.71599C31.2752 2.85999 31.6352 2.99999 31.9152 3.13599C32.2032 3.27199 32.4512 3.48399 32.6592 3.77199C32.8752 4.05999 32.9832 4.43599 32.9832 4.89999C32.9832 6.38799 32.0152 7.13199 30.0792 7.13199C29.7592 7.13199 29.3672 7.10399 28.9032 7.04799C28.4472 6.99199 28.0312 6.91999 27.6552 6.83199C27.6712 6.66399 27.7032 6.41999 27.7512 6.09999C27.8072 5.77199 27.8592 5.52799 27.9072 5.36799C28.1872 5.40799 28.6072 5.45599 29.1672 5.51199C29.7352 5.56799 30.1632 5.59599 30.4512 5.59599C30.6192 5.59599 30.7192 5.58399 30.7512 5.55999C30.7992 5.52799 30.8352 5.47599 30.8592 5.40399C30.8912 5.32399 30.9072 5.25599 30.9072 5.19999C30.9072 5.03999 30.8312 4.91999 30.6792 4.83999C30.5272 4.75199 30.2672 4.64799 29.8992 4.52799C29.4592 4.39199 29.0952 4.25199 28.8072 4.10799C28.5192 3.96399 28.2672 3.73999 28.0512 3.43599C27.8352 3.13199 27.7272 2.73199 27.7272 2.23599C27.7272 1.88399 27.8072 1.53999 27.9672 1.20399C28.1272 0.859989 28.2912 0.627989 28.4592 0.507989C28.5872 0.419989 28.8512 0.335989 29.2512 0.255989C29.6512 0.175989 30.0272 0.135989 30.3792 0.135989C31.2752 0.135989 32.0072 0.219989 32.5752 0.387989C32.5672 0.547989 32.5392 0.767989 32.4912 1.04799C32.4512 1.32799 32.4072 1.58399 32.3592 1.81599L32.0832 1.80399C31.0432 1.73199 30.3792 1.69599 30.0912 1.69599C29.9712 1.69599 29.9032 1.69999 29.8872 1.70799C29.8552 1.72399 29.8272 1.75999 29.8032 1.81599C29.7792 1.87199 29.7672 1.93599 29.7672 2.00799Z" fill="white"/>
<path d="M41.1437 6.77199C40.8477 6.89999 40.5037 6.99199 40.1117 7.04799C39.7197 7.10399 39.3557 7.13199 39.0197 7.13199C37.9317 7.13199 37.0797 6.84799 36.4637 6.27999C35.8477 5.71199 35.5397 4.83999 35.5397 3.66399C35.5397 2.46399 35.8637 1.56799 36.5117 0.975989C37.1597 0.375989 38.0717 0.0759888 39.2477 0.0759888C39.8077 0.0759888 40.3917 0.151989 40.9997 0.303989C40.9997 0.463989 40.9837 0.703989 40.9517 1.02399C40.9197 1.33599 40.8877 1.55599 40.8557 1.68399H40.0997C39.5477 1.68399 39.1117 1.69599 38.7917 1.71999C38.4797 1.73599 38.2917 1.77199 38.2277 1.82799C38.1077 1.93999 38.0157 2.16799 37.9517 2.51199C37.8877 2.84799 37.8557 3.17199 37.8557 3.48399C37.8557 4.02799 37.9237 4.44799 38.0597 4.74399C38.1957 5.03199 38.3677 5.22399 38.5757 5.31999C38.7757 5.41599 39.1077 5.46399 39.5717 5.46399C39.9397 5.46399 40.4197 5.43199 41.0117 5.36799L41.1437 6.77199Z" fill="white"/>
<path d="M41.908 0.159988H44.068V5.41599H46.864V6.99999H41.908V0.159988Z" fill="white"/>
<path d="M54.035 0.159988V3.98799C54.035 4.77999 53.947 5.39999 53.771 5.84799C53.603 6.28799 53.283 6.61199 52.811 6.81999C52.339 7.02799 51.651 7.13199 50.747 7.13199C50.083 7.13199 49.523 7.06399 49.067 6.92799C48.611 6.78399 48.247 6.51599 47.975 6.12399C47.711 5.73199 47.579 5.17999 47.579 4.46799V0.159988H49.739V4.01199C49.739 4.43599 49.759 4.75999 49.799 4.98399C49.847 5.19999 49.951 5.36799 50.111 5.48799C50.271 5.59999 50.515 5.65599 50.843 5.65599C51.043 5.65599 51.231 5.63599 51.407 5.59599C51.583 5.55599 51.703 5.49599 51.767 5.41599C51.839 5.31999 51.875 4.97199 51.875 4.37199V0.159988H54.035Z" fill="white"/>
<path d="M59.6142 3.38799C60.1582 3.45199 60.5462 3.63599 60.7782 3.93999C61.0102 4.23599 61.1262 4.59599 61.1262 5.01999C61.1262 5.28399 61.0862 5.53599 61.0062 5.77599C60.9262 6.00799 60.8302 6.20799 60.7182 6.37599C60.6062 6.53599 60.5102 6.63999 60.4302 6.68799C60.1102 6.89599 59.1342 6.99999 57.5022 6.99999H55.1742V0.159988H57.9942C58.6342 0.159988 59.1502 0.195988 59.5422 0.267988C59.9422 0.331989 60.2662 0.483989 60.5142 0.723989C60.7622 0.955989 60.8862 1.31199 60.8862 1.79199C60.8862 2.20799 60.7822 2.54399 60.5742 2.79999C60.3742 3.05599 60.0542 3.23199 59.6142 3.32799V3.38799ZM58.6542 1.61199C58.5742 1.53199 58.4782 1.48399 58.3662 1.46799C58.2622 1.44399 58.0942 1.43199 57.8622 1.43199C57.6302 1.43199 57.4542 1.43599 57.3342 1.44399V2.90799H57.4542C57.4942 2.90799 57.6622 2.90799 57.9582 2.90799C58.2542 2.90799 58.4502 2.88799 58.5462 2.84799C58.6182 2.81599 58.6822 2.73199 58.7382 2.59599C58.8022 2.45999 58.8342 2.31199 58.8342 2.15199C58.8342 1.91199 58.7742 1.73199 58.6542 1.61199ZM58.8582 5.61999C58.9142 5.57199 58.9582 5.48399 58.9902 5.35599C59.0302 5.21999 59.0502 5.08399 59.0502 4.94799C59.0502 4.77999 59.0262 4.62399 58.9782 4.47999C58.9382 4.32799 58.8822 4.21999 58.8102 4.15599C58.7382 4.08399 58.6342 4.03599 58.4982 4.01199C58.3702 3.98799 58.1502 3.97599 57.8382 3.97599C57.6382 3.97599 57.4702 3.97999 57.3342 3.98799V5.72799C57.7102 5.73599 58.0462 5.73199 58.3422 5.71599C58.6382 5.69199 58.8102 5.65999 58.8582 5.61999Z" fill="white"/>
</svg>
