<svg width="24" height="24" viewBox="0 0 24 24" fill="none" xmlns="http://www.w3.org/2000/svg">
<path d="M12 18C15.3137 18 18 15.3137 18 12C18 8.68629 15.3137 6 12 6C8.68629 6 6 8.68629 6 12C6 15.3137 8.68629 18 12 18Z" stroke="#d94496" stroke-width="2" stroke-linecap="round" stroke-linejoin="round"/>
<path d="M12 10V12L13 13M16.13 7.66L15.32 3.61C15.2285 3.14961 14.9781 2.73604 14.6124 2.4417C14.2468 2.14736 13.7893 1.99101 13.32 2H10.64C10.1707 1.99101 9.71317 2.14736 9.34753 2.4417C8.98189 2.73604 8.73143 3.14961 8.63999 3.61L7.85999 7.66M7.87999 16.36L8.67999 20.36C8.77143 20.8204 9.02189 21.234 9.38753 21.5283C9.75317 21.8226 10.2107 21.979 10.68 21.97H13.4C13.8693 21.979 14.3268 21.8226 14.6924 21.5283C15.0581 21.234 15.3085 20.8204 15.4 20.36L16.21 16.31" stroke="#d94496" stroke-width="2" stroke-linecap="round" stroke-linejoin="round"/>
</svg>
