<svg width="16" height="16" viewBox="0 0 16 16" fill="none" xmlns="http://www.w3.org/2000/svg">
<path fill-rule="evenodd" clip-rule="evenodd" d="M6.75003 1C5.22504 1 3.7625 1.6058 2.68417 2.68414C1.60584 3.76247 1.00003 5.22501 1.00003 6.75V7.268C0.69602 7.44354 0.443566 7.69602 0.268046 8.00004C0.0925255 8.30407 0.00012207 8.64894 0.00012207 9C0.00012207 9.35106 0.0925255 9.69593 0.268046 9.99996C0.443566 10.304 0.69602 10.5565 1.00003 10.732V12.25C1.00003 12.9793 1.28977 13.6788 1.80549 14.1945C2.32122 14.7103 3.02069 15 3.75003 15H12.25C12.9794 15 13.6789 14.7103 14.1946 14.1945C14.7103 13.6788 15 12.9793 15 12.25V10.732C15.304 10.5565 15.5565 10.304 15.732 9.99996C15.9075 9.69593 15.9999 9.35106 15.9999 9C15.9999 8.64894 15.9075 8.30407 15.732 8.00004C15.5565 7.69602 15.304 7.44354 15 7.268V6.75C15 5.22501 14.3942 3.76247 13.3159 2.68414C12.2376 1.6058 10.775 1 9.25003 1H6.75003ZM14 8.5H2.00003C1.86743 8.5 1.74025 8.55268 1.64648 8.64645C1.55271 8.74021 1.50003 8.86739 1.50003 9C1.50003 9.13261 1.55271 9.25979 1.64648 9.35355C1.74025 9.44732 1.86743 9.5 2.00003 9.5H14C14.1326 9.5 14.2598 9.44732 14.3536 9.35355C14.4474 9.25979 14.5 9.13261 14.5 9C14.5 8.86739 14.4474 8.74021 14.3536 8.64645C14.2598 8.55268 14.1326 8.5 14 8.5ZM13.5 7V6.75C13.5 5.62283 13.0523 4.54183 12.2552 3.7448C11.4582 2.94777 10.3772 2.5 9.25003 2.5H6.75003C5.62286 2.5 4.54186 2.94777 3.74483 3.7448C2.9478 4.54183 2.50003 5.62283 2.50003 6.75V7H13.5ZM11 11H13.5V12.25C13.5 12.94 12.94 13.5 12.25 13.5H3.75003C3.06003 13.5 2.50003 12.94 2.50003 12.25V11H9.00003L10 12L11 11Z" fill="#d94496"/>
</svg>
