<svg width="24" height="24" viewBox="0 0 24 24" fill="none" xmlns="http://www.w3.org/2000/svg">
<path d="M22.3744 11.5837L17.0963 3.6675C16.9593 3.46215 16.7737 3.29379 16.556 3.17735C16.3383 3.06091 16.0953 2.99999 15.8484 3H8.15626C7.9094 2.99999 7.66636 3.06091 7.44869 3.17735C7.23102 3.29379 7.04545 3.46215 6.90844 3.6675L1.63032 11.5837C1.57092 11.6729 1.53132 11.7738 1.51418 11.8795C1.49704 11.9853 1.50275 12.0935 1.53094 12.1969L3.63001 19.8947C3.71709 20.211 3.9052 20.4903 4.16567 20.6898C4.42614 20.8893 4.7447 20.9983 5.07282 21H7.50001C7.89783 21 8.27936 20.842 8.56067 20.5607C8.84197 20.2794 9.00001 19.8978 9.00001 19.5V18H15V19.5C15 19.8978 15.158 20.2794 15.4393 20.5607C15.7207 20.842 16.1022 21 16.5 21H18.9272C19.2561 20.9993 19.5757 20.8908 19.8372 20.6912C20.0986 20.4916 20.2874 20.2118 20.3747 19.8947L22.4738 12.1969C22.5019 12.0935 22.5077 11.9853 22.4905 11.8795C22.4734 11.7738 22.4338 11.6729 22.3744 11.5837ZM7.50001 16.5V6.54281L9.75001 7.82812V12.75C9.75001 12.9489 9.82902 13.1397 9.96968 13.2803C10.1103 13.421 10.3011 13.5 10.5 13.5C10.6989 13.5 10.8897 13.421 11.0303 13.2803C11.171 13.1397 11.25 12.9489 11.25 12.75V8.685L11.625 8.90625C11.739 8.97208 11.8684 9.00673 12 9.00673C12.1317 9.00673 12.261 8.97208 12.375 8.90625L12.75 8.68969V12C12.75 12.1989 12.829 12.3897 12.9697 12.5303C13.1103 12.671 13.3011 12.75 13.5 12.75C13.6989 12.75 13.8897 12.671 14.0303 12.5303C14.171 12.3897 14.25 12.1989 14.25 12V7.82812L16.5 6.54281V16.5H7.50001ZM15.8484 4.5L16.1803 4.99781L12 7.38656L7.81969 4.99781L8.15626 4.5H15.8484ZM7.50001 19.5H5.07282L3.06376 12.1322L6.00001 7.72687V16.5C6.00001 16.8978 6.15804 17.2794 6.43935 17.5607C6.72065 17.842 7.10218 18 7.50001 18V19.5ZM18.9272 19.5H16.5V18C16.8978 18 17.2794 17.842 17.5607 17.5607C17.842 17.2794 18 16.8978 18 16.5V7.72687L20.9363 12.1331L18.9272 19.5Z" fill="#d94496"/>
</svg>
